<svg xmlns="http://www.w3.org/2000/svg" data-name="Layer 1" viewBox="0 0 512 512"><rect width="355" height="497" x="78.5" y="7.5" fill="#83c9ee" rx="30"/><path fill="#52bbe9" d="M403.50006,7.5h-45a30.00012,30.00012,0,0,1,30,30v437a30.00012,30.00012,0,0,1-30,30h45a30.00012,30.00012,0,0,0,30-30V37.5A30.00012,30.00012,0,0,0,403.50006,7.5Z"/><path fill="#eb304a" d="M302.56346,382.58051H209.43654a42.64962,42.64962,0,0,1-42.64962-42.64962v-.00008a55.90009,55.90009,0,0,1,29.609-49.3315L256,258.83344l59.60411,31.76587a55.90009,55.90009,0,0,1,29.609,49.3315v.00008A42.64962,42.64962,0,0,1,302.56346,382.58051Z"/><path fill="#e4222e" d="M315.60407,290.5993l-59.604-31.76586-22.5,11.99133,37.104,19.77453A55.89984,55.89984,0,0,1,300.213,339.93079v.00012a42.64948,42.64948,0,0,1-42.64941,42.6496h45a42.64948,42.64948,0,0,0,42.64941-42.6496v-.00012A55.89984,55.89984,0,0,0,315.60407,290.5993Z"/><path fill="#fdd8ae" d="M283.85016,241.66V266.03a27.37012,27.37012,0,0,1-54.74023,0V241.66A3.329,3.329,0,0,1,232.44,238.33h48.08008A3.329,3.329,0,0,1,283.85016,241.66Z"/><path fill="#fbbf7d" d="M283.85016,241.66v21.4a53.89746,53.89746,0,0,1-54.74023.56V241.66A3.329,3.329,0,0,1,232.44,238.33h48.08008A3.329,3.329,0,0,1,283.85016,241.66Z"/><path fill="#fdd8ae" d="M309.85993,183.27v18.68a53.85987,53.85987,0,1,1-107.71973,0V183.27a53.85987,53.85987,0,0,1,107.71973,0Z"/><path fill="#fbbf7d" d="M294.08014,145.19a53.84769,53.84769,0,0,0-53.08057-13.63684A53.851,53.851,0,0,1,279.85993,183.27v18.68a53.88042,53.88042,0,0,1-38.85987,51.72608A53.85081,53.85081,0,0,0,309.85993,201.95V183.27A53.68169,53.68169,0,0,0,294.08014,145.19Z"/><path fill="#57565c" d="M309.85993,183.27v5.23l-.00977.03a77.41184,77.41184,0,0,1-47.1499,3.13995A76.01052,76.01052,0,0,1,232.44,175.96a24.9755,24.9755,0,0,1-7.31982,12.29c-9.25,8.35-21.48,6.05-22.97022,5.74l-.00976-.02v-10.7a53.85987,53.85987,0,0,1,107.71973,0Z"/><path fill="#3c3b41" d="M309.85993,183.27v5.23l-.00977.03a78.78569,78.78569,0,0,1-29.99023,5.45V183.27a53.86084,53.86084,0,0,0-38.85987-51.72c.6001-.17,1.18994-.34,1.79981-.49a53.01237,53.01237,0,0,1,5.53027-1.09q.94482-.135,1.88965-.24c.54-.06,1.09033-.11,1.64014-.15.18017-.02.35986-.03.54-.04.38038-.03.77-.05,1.16016-.06.31982-.02.6499-.03.98-.04.48-.01.96973-.02,1.46-.02a53.85889,53.85889,0,0,1,53.85987,53.85Z"/><path fill="#787681" d="M55.5,176h39a15,15,0,0,1,15,15v0a15,15,0,0,1-15,15h-39a15,15,0,0,1-15-15v0a15,15,0,0,1,15-15Z"/><path fill="#57565c" d="M94.50006,176h-30a15,15,0,1,1,0,30h30a15,15,0,1,0,0-30Z"/><path fill="#787681" d="M55.5,306h39a15,15,0,0,1,15,15v0a15,15,0,0,1-15,15h-39a15,15,0,0,1-15-15v0a15,15,0,0,1,15-15Z"/><path fill="#57565c" d="M94.50006,306h-30a15,15,0,1,1,0,30h30a15,15,0,1,0,0-30Z"/><rect width="69" height="30" x="40.5" y="46" fill="#787681" rx="15"/><path fill="#57565c" d="M94.50006,46h-30a15,15,0,0,1,0,30h30a15,15,0,1,0,0-30Z"/><path fill="#787681" d="M55.5,436h39a15,15,0,0,1,15,15v0a15,15,0,0,1-15,15h-39a15,15,0,0,1-15-15v0a15,15,0,0,1,15-15Z"/><path fill="#57565c" d="M94.50006,436h-30a15,15,0,0,1,0,30h30a15,15,0,0,0,0-30Z"/><path fill="#3c3b41" d="M403.5.00019h-295a37.54227,37.54227,0,0,0-37.5,37.5v1H55.5a22.5,22.5,0,0,0,0,45H71v85H55.5a22.5,22.5,0,0,0,0,45H71v85H55.5a22.5,22.5,0,0,0,0,45H71v85H55.5a22.5,22.5,0,0,0,0,45H71v1a37.54226,37.54226,0,0,0,37.5,37.5h295a37.54225,37.54225,0,0,0,37.5-37.5v-437A37.54226,37.54226,0,0,0,403.5.00019Zm-348,68.5a7.5,7.5,0,0,1,0-15h39a7.5,7.5,0,0,1,0,15Zm0,130a7.5,7.5,0,0,1,0-15h39a7.5,7.5,0,0,1,0,15Zm0,130a7.5,7.5,0,0,1,0-15h39a7.5,7.5,0,0,1,0,15Zm0,130a7.5,7.5,0,0,1,0-15h39a7.5,7.5,0,0,1,0,15Zm370.5,16a22.52554,22.52554,0,0,1-22.5,22.5h-295a22.52554,22.52554,0,0,1-22.5-22.5v-1h8.5a22.5,22.5,0,0,0,0-45H86v-85h8.5a22.5,22.5,0,0,0,0-45H86v-85h8.5a22.5,22.5,0,0,0,0-45H86v-85h8.5a22.5,22.5,0,0,0,0-45H86v-1a22.52554,22.52554,0,0,1,22.5-22.5h295a22.52554,22.52554,0,0,1,22.5,22.5ZM319.12793,283.98164l-27.9295-14.88684c.08984-1.018.15167-2.03895.15167-3.06434V252.05085A61.30866,61.30866,0,0,0,317.355,201.95039V183.2746a61.355,61.355,0,0,0-122.71,0v10.697c-.00012.01953-.00012.03906,0,.05847v7.92029a61.33806,61.33806,0,0,0,26.96484,50.78369v13.29638c0,.86011.0423,1.71827.10566,2.57471l-28.843,15.37549A63.38767,63.38767,0,0,0,159.29,339.92988a50.2067,50.2067,0,0,0,50.1499,50.15039h93.12012A50.14292,50.14292,0,0,0,352.71,339.92988,63.26625,63.26625,0,0,0,319.12793,283.98164ZM209.645,183.2746a46.35424,46.35424,0,0,1,92.70844-.05981,69.57146,69.57146,0,0,1-37.79828,1.19458,68.79438,68.79438,0,0,1-27.25879-14.168,7.5,7.5,0,0,0-12.11182,3.83692A16.65266,16.65266,0,0,1,209.645,186.9311Zm0,18.67579v-.0066a32.55469,32.55469,0,0,0,20.49561-8.12329,31.194,31.194,0,0,0,5.30468-6.23242A82.46067,82.46067,0,0,0,302.355,198.79536v3.155a46.355,46.355,0,0,1-92.71,0Zm66.70508,57.87085v6.20922a19.87012,19.87012,0,1,1-39.74024,0V260.1468a61.14389,61.14389,0,0,0,39.74024-.32556ZM327.417,364.78632a34.91965,34.91965,0,0,1-24.85693,10.29395H209.43994A35.19,35.19,0,0,1,174.29,339.92988,48.38724,48.38724,0,0,1,199.92822,297.218l26.21759-13.97631a34.87519,34.87519,0,0,0,60.43494.38891l25.49347,13.58838A48.29787,48.29787,0,0,1,337.71,339.92988,34.9183,34.9183,0,0,1,327.417,364.78632Z"/></svg>