<svg xmlns="http://www.w3.org/2000/svg" width="32" height="32" viewBox="0 0 32 32"><g transform="translate(149 -1237.362)"><g transform="translate(97.5 143.5)"><path fill="#f9bc36" d="m -225.49932,1104.1622 0,-3.3 1.9992,0 0,5.5"/><path fill="#f0f4f7" fill-rule="evenodd" d="m -223.50007,1120.3622 0,1.5 -19,0 0,-14 19,0 0,5.5"/><rect width="5" height="9" x="-235.5" y="1112.862" fill="#0c5286"/><path fill="#0c5286" d="m -233.00007,1095.8622 11.5,12 -23,0 z"/></g><path fill="#f9bc36" fill-rule="evenodd" d="m -123.85,1260.0448 0,1.5469 2.89493,1.6542 c 0.5906,0.3375 0.95507,0.9656 0.95507,1.6458 l 0,2.4705 -11,0 0,-2.4173 c 0,-0.7131 0.3821,-1.3715 1.00122,-1.7253 l 2.84878,-1.6279 0,-1.5469"/><path fill="#2dbca4" fill-rule="evenodd" d="m -123.85,1261.5917 0.098,0.056 2.79693,1.5982 c 0.5906,0.3375 0.95507,0.9656 0.95507,1.6458 l 0,2.4705 -11,0 0,-2.4173 c 0,-0.7131 0.3821,-1.3715 1.00122,-1.7253 l 2.84878,-1.6279 0.3013,1.0625 1.29714,1.1547 1.27269,-0.906 z"/><path fill="#15a78f" fill-rule="evenodd" d="m -125.49474,1263.7908 -0.27669,0.031 -1.52166,-0.025 c -0.20506,0 -0.45242,-0.014 -0.40999,-0.3168 l 0.55006,-1.8898 c 0.18632,0.5872 0.59437,1.1497 1.0434,1.6254"/><path fill="#15a78f" fill-rule="evenodd" d="m -125.5,1263.7917 0.63054,0 1.2492,0.01 c 0.24079,0.01 0.49368,-0.091 0.42855,-0.3162 0,0 -0.69364,-1.8023 -0.65067,-1.8925 -0.2777,0.4365 -0.35066,1.037 -1.01492,1.6029"/><path fill="none" stroke="#15a78f" d="M-129 1267.3622l0-1.5M-122 1267.3622l0-1.5"/><path fill="#15a78f" fill-rule="evenodd" style="line-height:normal;text-indent:0;text-align:start;text-decoration-line:none;text-decoration-style:solid;text-decoration-color:#000;text-transform:none;block-progression:tb;isolation:auto;mix-blend-mode:normal" d="m -126,1263.7921 0,3.5696 1,0 0,-3.5696 z" color="#000" font-family="sans-serif" font-weight="400" overflow="visible" white-space="normal"/><path fill="#f9b036" fill-rule="evenodd" d="m -127.14964,1260.0446 0,0.5361 c 0.40282,0.4654 0.98816,0.7648 1.64999,0.7648 0.66223,0 1.24717,-0.3 1.65,-0.7659 l 0,-0.535 -3.29999,0 z"/><path fill="#f9bc36" d="m -126.47836,1254.7161 c -0.67723,0 -1.22242,0.552 -1.22242,1.2377 l 0,1.1003 c 0,0.01 10e-4,0.01 10e-4,0.014 -3e-5,0.01 -10e-4,0.01 -10e-4,0.014 l 0,1.4848 c 0,1.2344 0.98178,2.2285 2.20078,2.2285 1.219,0 2.20078,-0.9941 2.20078,-2.2285 l 0,-1.4848 c 0,-0.01 -10e-4,-0.01 -10e-4,-0.014 6e-5,-0.01 10e-4,-0.01 10e-4,-0.014 l 0,-1.6118 c -0.0998,-0.7665 -0.46878,-1.3133 -1.22486,-1.3096 -0.0234,0.3584 -0.3998,0.5611 -0.7353,0.5834 z"/><path fill="#406b95" d="m -124.52425,1254.1332 c -0.0234,0.3584 -0.39927,0.561 -0.73477,0.5833 l -1.21924,0 c -0.67723,0 -1.22246,0.5518 -1.22246,1.2375 l 0,1.1 c 0,0.01 0.001,0.01 0.001,0.014 -2e-5,0.01 -0.001,0.01 -0.001,0.014 l 0,0.2149 c 0.0217,-0.01 0.0755,-0.027 0.13428,-0.065 0.0933,-0.059 0.20838,-0.148 0.31689,-0.2449 0.10851,-0.097 0.21224,-0.2017 0.28682,-0.29 0.0746,-0.088 0.11636,-0.1835 0.10635,-0.1461 0.0305,-0.115 0.13149,-0.1974 0.25029,-0.2041 0.10369,-0.01 0.20174,0.047 0.25352,0.1375 0.16002,0.2772 0.34521,0.3921 0.58652,0.4587 0.2413,0.066 0.54108,0.065 0.85937,0.051 0.31829,-0.013 0.65227,-0.039 0.97969,0.022 0.22214,0.041 0.44334,0.1407 0.62734,0.3051 l 0,-0.2396 c 0,-0.01 -0.001,-0.01 -0.001,-0.014 6e-5,-0.01 0.001,-0.01 0.001,-0.014 l 0,-1.6113 c -0.0998,-0.7665 -0.46853,-1.3132 -1.2246,-1.3095 z"/></g></svg>