<svg xmlns="http://www.w3.org/2000/svg" viewBox="0 0 32 32"><path fill="#f9bc36" d="M21 10.3V7h2v5.5"/><path fill="#f0f4f7" fill-rule="evenodd" d="M23 26.5V28H4V14h19v5.5"/><path fill="#0c5286" d="M11 19h5v9h-5zM13.5 2L25 14H2z"/><path fill="#f9bc36" fill-rule="evenodd" d="M25.15 22.683v1.547l2.895 1.654c.59.337.955.965.955 1.646V30H18v-2.417c0-.713.382-1.372 1.001-1.725l2.849-1.628v-1.547"/><path fill="#2dbca4" fill-rule="evenodd" d="M25.15 24.23l.098.056 2.797 1.598c.59.337.955.965.955 1.646V30H18v-2.417c0-.713.382-1.372 1.001-1.725l2.849-1.628.301 1.062 1.297 1.155 1.273-.906z"/><path fill="#15a78f" fill-rule="evenodd" d="M23.505 26.429l-.276.03-1.522-.024c-.205 0-.453-.014-.41-.317l.55-1.89c.186.587.594 1.15 1.043 1.626"/><path fill="#15a78f" fill-rule="evenodd" d="M23.5 26.43h.63l1.25.01c.24.01.493-.091.428-.317 0 0-.693-1.802-.65-1.892-.278.436-.351 1.037-1.015 1.603"/><path fill="none" stroke="#15a78f" d="M20 30v-1.5m7 1.5v-1.5"/><path fill="#15a78f" fill-rule="evenodd" style="line-height:normal;text-indent:0;text-align:start;text-decoration-line:none;text-decoration-style:solid;text-decoration-color:#000;text-transform:none;block-progression:tb;isolation:auto;mix-blend-mode:normal" d="M23 26.43V30h1v-3.57z" color="#000" font-family="sans-serif" font-weight="400" overflow="visible"/><path fill="#f9b036" fill-rule="evenodd" d="M21.85 22.683v.536c.403.465.989.764 1.65.764.663 0 1.248-.3 1.65-.765v-.535h-3.3z"/><path fill="#f9bc36" d="M22.522 17.354c-.678 0-1.223.552-1.223 1.238v1.1l.001.014v1.499a2.21 2.21 0 0 0 2.2 2.228 2.21 2.21 0 0 0 2.2-2.228V19.72v-.014V18.08c-.099-.766-.468-1.313-1.224-1.31-.023.36-.4.562-.735.584z"/><path fill="#406b95" d="M24.476 16.771c-.024.359-.4.561-.735.583h-1.22c-.676 0-1.222.552-1.222 1.238v1.1l.001.014v.229c.021-.01.075-.027.134-.065a3.074 3.074 0 0 0 .604-.535c.074-.088.116-.184.106-.146a.275.275 0 0 1 .25-.204.266.266 0 0 1 .253.137c.16.277.346.392.587.459.241.066.541.065.86.051.318-.013.652-.039.979.022.222.041.443.14.627.305v-.24-.014-1.624c-.1-.767-.468-1.314-1.224-1.31z"/></svg>