<svg xmlns="http://www.w3.org/2000/svg" viewBox="0 0 68 68"><path fill="#FFF" d="M33.455 48.78L19.219 34.543a50.1 50.1 0 0 1 11.535-17.942C39.777 7.58 52.217 2 65.993 2c0 .155-.007.318-.007.474-.184 21.258-13.684 39.284-32.531 46.306z"/><path fill="#DFE1E6" d="M33.455 48.78L19.219 34.543C45.852 49.508 63.525 8.583 65.986 2.473c-.184 21.258-13.684 39.284-32.531 46.306zM22.298 45.7l4.037-4.037"/><path fill="#FAC41D" d="M19.22 34.538l-7.647-7.647c-2.022-2.022-.593-5.481 2.273-5.472l14.224-1.896a49.883 49.883 0 0 0-8.85 15.015zm21.88 21.88L33.46 48.78a49.883 49.883 0 0 0 15.015-8.85L46.58 54.152c0 2.858-3.45 4.295-5.48 2.265z"/><path fill="#F4A01E" d="M47.722 45.608a49.012 49.012 0 0 1-11.089 6.344l-3.172-3.172a49.883 49.883 0 0 0 15.015-8.85l-.754 5.678z"/><path fill="#F37D7F" d="M61.848 21.87A49.596 49.596 0 0 0 65.998 2a49.596 49.596 0 0 0-19.87 4.15l15.72 15.72z"/><path fill="#F37D7F" d="M61.848 21.87A49.596 49.596 0 0 0 65.998 2a49.596 49.596 0 0 0-19.87 4.15l15.72 15.72z"/><path fill="#EF3F3E" d="M61.845 21.921a49.554 49.554 0 0 0 4.14-19.448c-.87 2.161-3.646 8.68-8.048 15.54l3.908 3.908z"/><circle cx="43.771" cy="24.227" r="6.354" fill="#5EA7DC"/><path fill="#FFF" d="M21.797 55.171l-.031-.028c.183-.147.362-.302.532-.472a6.343 6.343 0 1 0-9.443-8.439l-.028-.031a6.343 6.343 0 1 0 0 8.97c.17-.17.17-.17 0 0a6.343 6.343 0 1 0 8.97 0z"/><path fill="#DFE1E6" d="M21.8 64.14a6.345 6.345 0 0 1-8.974.007 6.302 6.302 0 0 1-1.775-5.467c.24.424.552.82.92 1.188a6.343 6.343 0 0 0 8.967 0 6.332 6.332 0 0 0 1.782-3.522 6.33 6.33 0 0 1-.92 7.794z"/><path fill="#010101" d="M32.4 52.67a1 1 0 0 0-1.414 0l-2.695 2.696a1 1 0 1 0 1.414 1.414l2.696-2.696a1 1 0 0 0 0-1.414zM15.329 35.598a1 1 0 0 0-1.414 0l-2.696 2.695a1 1 0 1 0 1.414 1.414l2.696-2.695a1 1 0 0 0 0-1.414z"/><path fill="#010101" d="M66.998 2V1h-1C53.935 1 44.634 5.775 44.13 5.945l.037.037a51.493 51.493 0 0 0-16.573 12.595L13.777 20.42a4.134 4.134 0 0 0-3.825 2.593c-.664 1.602-.314 3.36.913 4.586l7.192 7.192-.002.006 6.866 6.867-2.677 2.677a7.323 7.323 0 0 0-9.462.496c-2.83-2.158-6.964-2.011-9.633.658-2.863 2.863-2.863 7.522 0 10.384a7.336 7.336 0 0 0 7.063 1.912 7.341 7.341 0 0 0 12.293 7.059 7.326 7.326 0 0 0 .652-9.628 7.322 7.322 0 0 0 .501-9.468l2.677-2.676 6.866 6.866.007-.002 7.184 7.184c2.652 2.652 7.127.774 7.188-2.9l1.842-13.823a51.492 51.492 0 0 0 12.595-16.57l.036.036c.235-.704 4.945-9.585 4.945-21.868zM21.09 55.878a5.35 5.35 0 0 1 0 7.557 5.34 5.34 0 0 1-7.556 0 5.35 5.35 0 0 1 0-7.557l.127-.127a.997.997 0 0 0 0-1.414 1 1 0 0 0-1.414 0l-.127.127a5.34 5.34 0 0 1-7.556 0 5.35 5.35 0 0 1 0-7.556c2.137-2.138 5.532-2.021 7.514-.045.22.263.534.387.844.366.565-.037.7-.41 1.112-.822a5.34 5.34 0 0 1 7.556 0 5.34 5.34 0 0 1 0 7.557c-.412.412-.773.53-.807 1.137-.016.284.106.576.307.777zM61.374 20.36L47.638 6.624a48.541 48.541 0 0 1 17.35-3.613 48.56 48.56 0 0 1-3.614 17.35zM11.8 23.777c.352-.85 1.113-1.358 2.043-1.358L25.7 20.848c-2.835 3.663-5.244 7.945-6.857 11.901l-6.565-6.565c-.77-.77-.752-1.748-.48-2.407zm35.351 18.52L45.59 54.022l-.009.132c0 1.978-2.374 2.958-3.774 1.558l-6.555-6.556c3.986-1.624 8.242-4.026 11.9-6.857zM33.696 47.61l-6.653-6.654-.001-.001-6.653-6.653c4.737-12.21 14.022-21.638 25.275-26.824L60.52 22.334C55.308 33.643 45.852 42.897 33.696 47.61z"/><path fill="#010101" d="M38.571 19.027c-2.866 2.867-2.866 7.533 0 10.4a7.35 7.35 0 0 0 10.4 0c2.867-2.867 2.867-7.533 0-10.4a7.35 7.35 0 0 0-10.4 0zm8.986 8.986a5.352 5.352 0 0 1-7.572 0 5.361 5.361 0 0 1 0-7.572 5.352 5.352 0 0 1 7.572 0 5.361 5.361 0 0 1 0 7.572z"/><path fill="#FFF" d="M19.278 23.48l-2.49.23a.75.75 0 1 0 .138 1.494l2.491-.23a.75.75 0 0 0 .677-.817.743.743 0 0 0-.816-.677z"/></svg>